<?xml version="1.0" standalone="no"?>
<!DOCTYPE svg PUBLIC "-//W3C//DTD SVG 20010904//EN"
 "http://www.w3.org/TR/2001/REC-SVG-20010904/DTD/svg10.dtd">
<svg version="1.0" xmlns="http://www.w3.org/2000/svg"
 width="512.000000pt" height="512.000000pt" viewBox="0 0 512.000000 512.000000"
 preserveAspectRatio="xMidYMid meet">

<g transform="translate(0.000000,512.000000) scale(0.100000,-0.100000)"
fill="#000000" stroke="none">
<path d="M1630 5114 c-422 -42 -767 -192 -1059 -461 -299 -275 -487 -629 -552
-1043 -19 -119 -20 -1006 -1 -1135 113 -765 702 -1365 1462 -1490 52 -9 173
-18 268 -22 l172 -6 0 -414 c0 -457 0 -459 62 -507 41 -31 84 -41 135 -31 34
6 94 62 513 480 l475 473 220 5 c225 6 347 20 485 58 622 170 1093 646 1254
1269 47 182 51 243 51 755 0 509 -3 553 -51 745 -152 614 -648 1114 -1259
1271 -209 54 -181 52 -1195 54 -520 1 -961 1 -980 -1z m1885 -324 c677 -77
1201 -604 1275 -1282 13 -126 13 -810 -1 -936 -74 -683 -598 -1207 -1281
-1281 -54 -6 -188 -11 -298 -11 -150 0 -209 -4 -233 -14 -18 -8 -188 -170
-382 -365 l-350 -351 -5 314 c-5 298 -6 316 -26 342 -51 69 -49 68 -347 76
-320 7 -413 21 -590 84 -455 162 -807 554 -915 1019 -34 149 -42 266 -42 655
0 398 7 508 45 665 136 572 638 1016 1226 1084 108 12 1814 13 1924 1z"/>
<path d="M2400 3360 l0 -800 160 0 160 0 0 800 0 800 -160 0 -160 0 0 -800z"/>
<path d="M2400 2080 l0 -160 160 0 160 0 0 160 0 160 -160 0 -160 0 0 -160z"/>
</g>
</svg>
